<?xml version="1.0" encoding="UTF-8" standalone="no"?>
<svg width="688px" height="267px" viewBox="0 0 688 267" version="1.1" xmlns="http://www.w3.org/2000/svg" xmlns:xlink="http://www.w3.org/1999/xlink" xmlns:sketch="http://www.bohemiancoding.com/sketch/ns">
    <title>noble-logo</title>
    <description>Created with Sketch (http://www.bohemiancoding.com/sketch)</description>
    <defs></defs>
    <g id="Page-1" stroke="none" stroke-width="1" fill="none" fill-rule="evenodd" sketch:type="MSPage">
        <path d="M46.844,109.808 C47.169335,112.898682 47.4133325,116.314648 47.576,120.056 C47.7386675,123.797352 47.82,126.887988 47.82,129.328 L48.308,129.328 C51.5613496,122.658633 56.8479634,117.250021 64.168,113.102 C71.4880366,108.953979 79.214626,106.88 87.348,106.88 C101.825406,106.88 112.683297,111.190624 119.922,119.812 C127.160703,128.433376 130.78,139.819929 130.78,153.972 L130.78,224 L114.188,224 L114.188,160.804 C114.188,154.785303 113.700005,149.336024 112.724,144.456 C111.747995,139.575976 110.080678,135.387351 107.722,131.89 C105.363322,128.392649 102.191353,125.66801 98.206,123.716 C94.2206467,121.76399 89.2186968,120.788 83.2,120.788 C78.807978,120.788 74.5380207,121.682658 70.39,123.472 C66.2419793,125.261342 62.5413496,127.985982 59.288,131.646 C56.0346504,135.306018 53.4320098,139.941972 51.48,145.554 C49.5279902,151.166028 48.552,157.794628 48.552,165.44 L48.552,224 L31.96,224 L31.96,134.94 C31.96,131.849318 31.8786675,127.864024 31.716,122.984 C31.5533325,118.103976 31.309335,113.71202 30.984,109.808 L46.844,109.808 Z M290.9965,166.904 C290.9965,175.525376 289.491848,183.495963 286.4825,190.816 C283.473152,198.136037 279.284527,204.479973 273.9165,209.848 C268.548473,215.216027 262.123204,219.404652 254.6405,222.414 C247.157796,225.423348 238.943211,226.928 229.9965,226.928 C221.212456,226.928 213.079204,225.423348 205.5965,222.414 C198.113796,219.404652 191.688527,215.216027 186.3205,209.848 C180.952473,204.479973 176.763848,198.136037 173.7545,190.816 C170.745152,183.495963 169.2405,175.525376 169.2405,166.904 C169.2405,158.282624 170.745152,150.312037 173.7545,142.992 C176.763848,135.671963 180.952473,129.328027 186.3205,123.96 C191.688527,118.591973 198.113796,114.403348 205.5965,111.394 C213.079204,108.384652 221.212456,106.88 229.9965,106.88 C238.943211,106.88 247.157796,108.384652 254.6405,111.394 C262.123204,114.403348 268.548473,118.591973 273.9165,123.96 C279.284527,129.328027 283.473152,135.671963 286.4825,142.992 C289.491848,150.312037 290.9965,158.282624 290.9965,166.904 Z M347.513,204.724 L347.513,224 L330.921,224 L330.921,39.536 L347.513,39.536 L347.513,129.572 L348.001,129.572 C352.881024,122.089296 359.224961,116.436686 367.033,112.614 C374.841039,108.791314 382.892959,106.88 391.189,106.88 C400.135711,106.88 408.228297,108.425318 415.467,111.516 C422.705703,114.606682 428.886974,118.835973 434.011,124.204 C439.135026,129.572027 443.120319,135.915963 445.967,143.236 C448.813681,150.556037 450.237,158.445291 450.237,166.904 C450.237,175.362709 448.813681,183.251963 445.967,190.572 C443.120319,197.892037 439.135026,204.235973 434.011,209.604 C428.886974,214.972027 422.705703,219.201318 415.467,222.292 C408.228297,225.382682 400.135711,226.928 391.189,226.928 C382.892959,226.928 374.841039,225.057352 367.033,221.316 C359.224961,217.574648 352.881024,212.044037 348.001,204.724 L347.513,204.724 Z M432.669,166.904 C432.669,160.559968 431.69301,154.582028 429.741,148.97 C427.78899,143.357972 424.983018,138.478021 421.323,134.33 C417.662982,130.181979 413.149027,126.888012 407.781,124.448 C402.412973,122.007988 396.313034,120.788 389.481,120.788 C383.136968,120.788 377.281027,121.967322 371.913,124.326 C366.544973,126.684678 361.90902,129.937979 358.005,134.086 C354.10098,138.234021 351.051011,143.113972 348.855,148.726 C346.658989,154.338028 345.561,160.397301 345.561,166.904 C345.561,173.410699 346.658989,179.469972 348.855,185.082 C351.051011,190.694028 354.10098,195.533313 358.005,199.6 C361.90902,203.666687 366.544973,206.879322 371.913,209.238 C377.281027,211.596678 383.136968,212.776 389.481,212.776 C396.313034,212.776 402.412973,211.596678 407.781,209.238 C413.149027,206.879322 417.662982,203.626021 421.323,199.478 C424.983018,195.329979 427.78899,190.450028 429.741,184.838 C431.69301,179.225972 432.669,173.248032 432.669,166.904 Z M506.7535,224 L490.1615,224 L490.1615,39.536 L506.7535,39.536 L506.7535,224 Z M658.918,163.488 L658.918,167.148 C658.918,168.44934 658.836667,169.831993 658.674,171.296 L564.002,171.296 C564.164667,176.989362 565.303323,182.357308 567.418,187.4 C569.532677,192.442692 572.460648,196.834648 576.202,200.576 C579.943352,204.317352 584.335308,207.285989 589.378,209.482 C594.420692,211.678011 599.869971,212.776 605.726,212.776 C614.347376,212.776 621.789302,210.783353 628.052,206.798 C634.314698,202.812647 639.07265,198.217359 642.326,193.012 L654.77,202.772 C647.937966,211.393376 640.414708,217.574648 632.2,221.316 C623.985292,225.057352 615.160714,226.928 605.726,226.928 C597.267291,226.928 589.418703,225.423348 582.18,222.414 C574.941297,219.404652 568.719359,215.216027 563.514,209.848 C558.308641,204.479973 554.201348,198.136037 551.192,190.816 C548.182652,183.495963 546.678,175.525376 546.678,166.904 C546.678,158.282624 548.141985,150.312037 551.07,142.992 C553.998015,135.671963 558.064641,129.328027 563.27,123.96 C568.475359,118.591973 574.575298,114.403348 581.57,111.394 C588.564702,108.384652 596.128626,106.88 604.262,106.88 C613.208711,106.88 621.097966,108.384652 627.93,111.394 C634.762034,114.403348 640.455311,118.469974 645.01,123.594 C649.564689,128.718026 653.021322,134.695966 655.38,141.528 C657.738678,148.360034 658.918,155.679961 658.918,163.488 Z M642.082,158.12 C641.593998,147.383946 638.137365,138.478035 631.712,131.402 C625.286635,124.325965 616.136726,120.788 604.262,120.788 C598.731306,120.788 593.607357,121.804657 588.89,123.838 C584.172643,125.871344 580.024685,128.636649 576.446,132.134 C572.867315,135.631351 570.020677,139.616644 567.906,144.09 C565.791323,148.563356 564.571335,153.239976 564.246,158.12 L642.082,158.12 Z" id="noble" fill="#1977E0" sketch:type="MSShapeGroup"></path>
        <path d="M249.265672,185.408876 L232.98806,169.550988 L248.776119,154.181035 C249.265672,153.6931 249.510448,153.083181 249.510448,152.473262 C249.510448,151.863343 249.265672,151.131441 248.776119,150.765489 L231.274627,133.687764 C230.540299,132.955861 229.561194,132.833878 228.58209,133.199829 C227.725373,133.56578 227.113433,134.419666 227.113433,135.395536 L227.113433,163.695767 L213.283582,150.277554 C212.304478,149.301684 210.713433,149.301684 209.856716,150.277554 C208.877612,151.253424 208.877612,152.839213 209.856716,153.6931 L226.01194,169.429004 L209.734328,185.164908 C208.755224,186.140778 208.755224,187.604583 209.734328,188.580453 C210.713433,189.556323 212.18209,189.556323 213.161194,188.580453 L226.991045,175.040256 L226.991045,204.560325 C226.991045,205.536195 227.602985,206.390081 228.459701,206.756032 C228.704478,206.878016 229.071642,207 229.438806,207 C230.050746,207 230.662687,206.756032 231.152239,206.268097 L249.143284,188.580453 C249.755224,188.336486 250,187.726567 250,187.116648 C250,186.506729 249.755224,185.774827 249.265672,185.408876 Z M232,141 L243,152.562162 L232,164 L232,141 L232,141 Z M232,199 L232,175 L244,187 L232,199 L232,199 Z" id="Shape" fill="#FFFFFF" sketch:type="MSShapeGroup"></path>
    </g>
</svg>